<mxfile host="app.diagrams.net" modified="2021-05-05T13:16:48.099Z" agent="5.0 (Windows NT 10.0; Win64; x64) AppleWebKit/537.36 (KHTML, like Gecko) Chrome/90.0.4430.93 Safari/537.36" etag="4sw3mLIPjoQJ5i0NPQYH" version="14.6.10" type="github">
  <diagram id="y0HRfcic1CQkP_HYk3MQ" name="Page-1">
    <mxGraphModel dx="1038" dy="585" grid="1" gridSize="10" guides="1" tooltips="1" connect="1" arrows="1" fold="1" page="1" pageScale="1" pageWidth="827" pageHeight="1169" math="0" shadow="0">
      <root>
        <mxCell id="0" />
        <mxCell id="1" parent="0" />
        <mxCell id="O2HmF8ZmG8eRQNGdVJtb-2" value="" style="endArrow=classic;html=1;rounded=0;edgeStyle=orthogonalEdgeStyle;" edge="1" parent="1">
          <mxGeometry relative="1" as="geometry">
            <mxPoint x="180" y="59.5" as="sourcePoint" />
            <mxPoint x="570" y="60" as="targetPoint" />
            <Array as="points">
              <mxPoint x="470" y="60" />
              <mxPoint x="470" y="60" />
            </Array>
          </mxGeometry>
        </mxCell>
        <mxCell id="O2HmF8ZmG8eRQNGdVJtb-5" value="" style="points=[];aspect=fixed;html=1;align=center;shadow=0;dashed=0;image;image=img/lib/allied_telesis/computer_and_terminals/Personal_Computer.svg;" vertex="1" parent="1">
          <mxGeometry x="590" y="30" width="45.6" height="61.800000000000004" as="geometry" />
        </mxCell>
        <mxCell id="O2HmF8ZmG8eRQNGdVJtb-6" value="" style="pointerEvents=1;shadow=0;dashed=0;html=1;strokeColor=none;fillColor=#4495D1;labelPosition=center;verticalLabelPosition=bottom;verticalAlign=top;align=center;outlineConnect=0;shape=mxgraph.veeam.usb;" vertex="1" parent="1">
          <mxGeometry x="120" y="51.69999999999999" width="52.8" height="18.4" as="geometry" />
        </mxCell>
        <mxCell id="O2HmF8ZmG8eRQNGdVJtb-7" value="clef usb contenant du code malveillant&amp;nbsp;" style="text;html=1;strokeColor=none;fillColor=none;align=center;verticalAlign=middle;whiteSpace=wrap;rounded=0;" vertex="1" parent="1">
          <mxGeometry x="10.000000000000014" y="25.899999999999995" width="103.6" height="70" as="geometry" />
        </mxCell>
        <mxCell id="O2HmF8ZmG8eRQNGdVJtb-8" value="ordinateur de la cible&amp;nbsp;" style="text;html=1;strokeColor=none;fillColor=none;align=center;verticalAlign=middle;whiteSpace=wrap;rounded=0;" vertex="1" parent="1">
          <mxGeometry x="689.9999999999999" y="39.3" width="77.2" height="43.2" as="geometry" />
        </mxCell>
        <mxCell id="O2HmF8ZmG8eRQNGdVJtb-9" value="" style="curved=1;endArrow=classic;html=1;rounded=0;edgeStyle=orthogonalEdgeStyle;" edge="1" parent="1">
          <mxGeometry width="50" height="50" relative="1" as="geometry">
            <mxPoint x="640" y="61.8" as="sourcePoint" />
            <mxPoint x="645.5999999999999" y="210" as="targetPoint" />
            <Array as="points">
              <mxPoint x="690" y="62" />
              <mxPoint x="690" y="210" />
            </Array>
          </mxGeometry>
        </mxCell>
        <mxCell id="O2HmF8ZmG8eRQNGdVJtb-11" value="une fois que la clef usb est branché sur l&#39;ordinateur de la cible, alors un programme venant de GitHub est télécharger dans le répertoire démarrage de Windows et exécuter le malware&amp;nbsp;" style="text;html=1;strokeColor=none;fillColor=none;align=center;verticalAlign=middle;whiteSpace=wrap;rounded=0;" vertex="1" parent="1">
          <mxGeometry x="710" y="95.9" width="240" height="90" as="geometry" />
        </mxCell>
        <mxCell id="O2HmF8ZmG8eRQNGdVJtb-12" value="" style="shape=image;html=1;verticalAlign=top;verticalLabelPosition=bottom;labelBackgroundColor=#ffffff;imageAspect=0;aspect=fixed;image=https://cdn3.iconfinder.com/data/icons/materia-halloween-free/24/039_014_skull_pirate_roger_halloween-128.png" vertex="1" parent="1">
          <mxGeometry x="58.6" y="250" width="60" height="60" as="geometry" />
        </mxCell>
        <mxCell id="O2HmF8ZmG8eRQNGdVJtb-13" value="" style="curved=1;endArrow=classic;html=1;rounded=0;edgeStyle=orthogonalEdgeStyle;" edge="1" parent="1">
          <mxGeometry width="50" height="50" relative="1" as="geometry">
            <mxPoint x="645.6" y="219.99999999999994" as="sourcePoint" />
            <mxPoint x="651.1999999999999" y="368.2" as="targetPoint" />
            <Array as="points">
              <mxPoint x="695.6" y="220.2" />
              <mxPoint x="695.6" y="368.2" />
            </Array>
          </mxGeometry>
        </mxCell>
        <mxCell id="O2HmF8ZmG8eRQNGdVJtb-14" value="" style="aspect=fixed;perimeter=ellipsePerimeter;html=1;align=center;shadow=0;dashed=0;spacingTop=3;image;image=img/lib/active_directory/laptop_client.svg;" vertex="1" parent="1">
          <mxGeometry x="591" y="340" width="45" height="50" as="geometry" />
        </mxCell>
        <mxCell id="O2HmF8ZmG8eRQNGdVJtb-15" value="" style="image;html=1;image=img/lib/clip_art/computers/Virus_128x128.png" vertex="1" parent="1">
          <mxGeometry x="571.6" y="190" width="64.4" height="60" as="geometry" />
        </mxCell>
        <mxCell id="O2HmF8ZmG8eRQNGdVJtb-16" value="" style="shape=image;html=1;verticalAlign=top;verticalLabelPosition=bottom;labelBackgroundColor=#ffffff;imageAspect=0;aspect=fixed;image=https://cdn0.iconfinder.com/data/icons/pulse_pack_by_chromatix/128/serveur_eteint.png" vertex="1" parent="1">
          <mxGeometry x="63.60000000000002" y="340" width="50" height="50" as="geometry" />
        </mxCell>
        <mxCell id="O2HmF8ZmG8eRQNGdVJtb-17" value="serveur en écoute d&#39;une cible" style="text;html=1;strokeColor=none;fillColor=none;align=center;verticalAlign=middle;whiteSpace=wrap;rounded=0;" vertex="1" parent="1">
          <mxGeometry x="27.900000000000002" y="410" width="121.4" height="30" as="geometry" />
        </mxCell>
        <mxCell id="O2HmF8ZmG8eRQNGdVJtb-18" value="" style="edgeStyle=elbowEdgeStyle;elbow=vertical;endArrow=classic;html=1;rounded=0;entryX=0.75;entryY=0;entryDx=0;entryDy=0;" edge="1" parent="1" source="O2HmF8ZmG8eRQNGdVJtb-14" target="O2HmF8ZmG8eRQNGdVJtb-16">
          <mxGeometry width="50" height="50" relative="1" as="geometry">
            <mxPoint x="389" y="370" as="sourcePoint" />
            <mxPoint x="439" y="320" as="targetPoint" />
            <Array as="points">
              <mxPoint x="340" y="320" />
            </Array>
          </mxGeometry>
        </mxCell>
        <mxCell id="O2HmF8ZmG8eRQNGdVJtb-19" value="" style="edgeStyle=segmentEdgeStyle;endArrow=classic;html=1;rounded=0;exitX=0.75;exitY=1;exitDx=0;exitDy=0;" edge="1" parent="1" source="O2HmF8ZmG8eRQNGdVJtb-16" target="O2HmF8ZmG8eRQNGdVJtb-14">
          <mxGeometry width="50" height="50" relative="1" as="geometry">
            <mxPoint x="389" y="410" as="sourcePoint" />
            <mxPoint x="439" y="360" as="targetPoint" />
            <Array as="points">
              <mxPoint x="360" y="410" />
              <mxPoint x="360" y="410" />
            </Array>
          </mxGeometry>
        </mxCell>
        <mxCell id="O2HmF8ZmG8eRQNGdVJtb-21" value="malware qui ouvre un port et cherche à se connecter à l&#39;attaquant" style="text;html=1;strokeColor=none;fillColor=none;align=center;verticalAlign=middle;whiteSpace=wrap;rounded=0;" vertex="1" parent="1">
          <mxGeometry x="710" y="262.8" width="200" height="60" as="geometry" />
        </mxCell>
        <mxCell id="O2HmF8ZmG8eRQNGdVJtb-22" value="connexion" style="text;html=1;strokeColor=none;fillColor=none;align=center;verticalAlign=middle;whiteSpace=wrap;rounded=0;" vertex="1" parent="1">
          <mxGeometry x="330" y="290" width="140" height="20" as="geometry" />
        </mxCell>
        <mxCell id="O2HmF8ZmG8eRQNGdVJtb-23" value="envoie de commande, de fichier ...&amp;nbsp;" style="text;html=1;strokeColor=none;fillColor=none;align=center;verticalAlign=middle;whiteSpace=wrap;rounded=0;" vertex="1" parent="1">
          <mxGeometry x="329" y="410" width="170" height="55" as="geometry" />
        </mxCell>
      </root>
    </mxGraphModel>
  </diagram>
</mxfile>
